<svg xmlns="http://www.w3.org/2000/svg" width="1280" height="760" viewBox="0 0 1280 760" role="img" aria-labelledby="title desc">
  <title id="title">ChatGPT composer showing Developer Mode app enabled</title>
  <desc id="desc">A redacted ChatGPT conversation screenshot showing a Developer Mode app enabled and AIProfile tools available.</desc>
  <rect width="1280" height="760" fill="#f7f7f2"/>
  <rect x="58" y="48" width="1164" height="664" rx="18" fill="#ffffff" stroke="#d8d8d0"/>
  <text x="102" y="108" fill="#202123" font-family="Arial, sans-serif" font-size="28" font-weight="700">ChatGPT</text>
  <rect x="102" y="144" width="1076" height="96" rx="14" fill="#f0fdf4" stroke="#bbf7d0"/>
  <text x="134" y="178" fill="#166534" font-family="Arial, sans-serif" font-size="20" font-weight="700">Developer Mode app enabled</text>
  <rect x="134" y="198" width="226" height="28" rx="14" fill="#dcfce7"/>
  <text x="247" y="218" text-anchor="middle" fill="#166534" font-family="Arial, sans-serif" font-size="14" font-weight="700">AIProfile Company Memory</text>
  <rect x="388" y="198" width="94" height="28" rx="14" fill="#ede9fe"/>
  <text x="435" y="218" text-anchor="middle" fill="#5b21b6" font-family="Arial, sans-serif" font-size="14">ingest</text>
  <rect x="496" y="198" width="72" height="28" rx="14" fill="#ede9fe"/>
  <text x="532" y="218" text-anchor="middle" fill="#5b21b6" font-family="Arial, sans-serif" font-size="14">ask</text>
  <rect x="582" y="198" width="150" height="28" rx="14" fill="#ede9fe"/>
  <text x="657" y="218" text-anchor="middle" fill="#5b21b6" font-family="Arial, sans-serif" font-size="14">suggest_question</text>
  <rect x="102" y="294" width="1076" height="286" rx="14" fill="#ffffff" stroke="#e2e2dc"/>
  <text x="134" y="344" fill="#565869" font-family="Arial, sans-serif" font-size="18">New chat</text>
  <text x="134" y="394" fill="#202123" font-family="Arial, sans-serif" font-size="22">AIProfile is connected. You can now ask ChatGPT to ingest or query company memory.</text>
  <rect x="102" y="622" width="1076" height="52" rx="14" fill="#fbfbf8" stroke="#d1d1c8"/>
  <text x="132" y="655" fill="#8a8a80" font-family="Arial, sans-serif" font-size="17">Message ChatGPT...</text>
</svg>
